<svg width="546" height="143" viewBox="0 0 546 143" fill="none" xmlns="http://www.w3.org/2000/svg">
<path d="M28.1843 0.463994C32.4083 0.463994 35.7203 0.943994 38.1203 1.90399C40.6163 2.76799 43.1603 4.06399 45.7523 5.79199C47.8643 7.13599 49.4963 7.80799 50.6483 7.80799C51.5123 7.80799 52.1843 7.32799 52.6643 6.368C53.1443 5.312 53.5283 3.68 53.8163 1.472H57.1283C56.6483 7.04 56.4083 16.832 56.4083 30.848H53.0963C52.5203 23.072 50.2643 16.544 46.3283 11.264C42.4883 5.88799 36.8723 3.19999 29.4803 3.19999C24.2963 3.19999 20.0723 4.78399 16.8083 7.95199C13.5443 11.024 11.9123 15.008 11.9123 19.904C11.9123 23.552 12.7283 26.72 14.3603 29.408C16.0883 32.096 18.2483 34.4 20.8403 36.32C23.4323 38.24 27.1283 40.688 31.9283 43.664L36.1043 46.256C42.1523 50 46.9043 53.312 50.3603 56.192C53.9123 58.976 56.7443 62.192 58.8563 65.84C60.9683 69.488 62.0243 73.76 62.0243 78.656C62.0243 87.392 59.1443 94.16 53.3843 98.96C47.6243 103.664 40.3283 106.016 31.4963 106.016C26.8883 106.016 23.0963 105.536 20.1203 104.576C17.2403 103.616 14.4563 102.32 11.7683 100.688C9.65631 99.344 8.02431 98.672 6.87231 98.672C6.00831 98.672 5.33631 99.2 4.85631 100.256C4.37631 101.216 3.99231 102.8 3.70431 105.008H0.392313C0.776313 99.728 0.968313 88.208 0.968313 70.448H4.28031C4.95231 80.144 7.35231 88.016 11.4803 94.064C15.6083 100.112 21.9443 103.136 30.4883 103.136C35.6723 103.136 40.0883 101.552 43.7363 98.384C47.3843 95.12 49.2083 90.32 49.2083 83.984C49.2083 78.608 47.3843 74.048 43.7363 70.304C40.1843 66.56 34.5203 62.336 26.7443 57.632C21.0803 54.176 16.4723 51.104 12.9203 48.416C9.46431 45.728 6.63231 42.512 4.42431 38.768C2.21631 34.928 1.11231 30.464 1.11231 25.376C1.11231 17.312 3.70431 11.168 8.88831 6.944C14.0723 2.62399 20.5043 0.463994 28.1843 0.463994ZM142.958 2.47999C147.278 2.47999 150.878 2.336 153.758 2.048V4.928C151.838 5.408 149.966 6.65599 148.142 8.67199C146.318 10.592 144.35 13.616 142.238 17.744L119.63 62.528V88.736C119.63 92.384 119.918 95.024 120.494 96.656C121.07 98.288 122.126 99.392 123.662 99.968C125.294 100.544 127.838 100.928 131.294 101.12V104C126.878 103.712 120.782 103.568 113.006 103.568C104.75 103.568 98.6059 103.712 94.5739 104V101.12C98.0299 100.928 100.526 100.544 102.062 99.968C103.694 99.392 104.798 98.288 105.374 96.656C105.95 95.024 106.238 92.384 106.238 88.736V67.136L77.0059 13.136C75.2779 9.96799 73.7419 7.856 72.3979 6.8C71.1499 5.648 69.9019 5.07199 68.6539 5.07199V2.048C72.3979 2.336 76.6219 2.47999 81.3259 2.47999C90.6379 2.47999 97.3579 2.336 101.486 2.048V5.07199C94.7659 5.07199 91.4059 6.89599 91.4059 10.544C91.4059 11.984 91.8859 13.664 92.8459 15.584L116.75 61.52L135.182 24.944C137.774 19.856 139.07 15.728 139.07 12.56C139.07 9.87199 138.014 7.95199 135.902 6.8C133.79 5.648 130.622 5.024 126.398 4.928V2.048C131.87 2.336 137.39 2.47999 142.958 2.47999ZM249.204 96.8C246.996 100.064 244.788 102.416 242.58 103.856C240.372 105.296 237.444 106.016 233.796 106.016C229.86 106.016 226.596 104.864 224.004 102.56C221.508 100.256 219.636 96.224 218.388 90.464L215.22 76.064C214.068 71.072 212.964 67.232 211.908 64.544C210.948 61.856 209.46 59.696 207.444 58.064C205.428 56.432 202.596 55.616 198.948 55.616H185.268V88.736C185.268 92.384 185.556 95.024 186.132 96.656C186.708 98.288 187.764 99.392 189.3 99.968C190.932 100.544 193.476 100.928 196.932 101.12V104C192.516 103.712 186.42 103.568 178.644 103.568C170.388 103.568 164.244 103.712 160.212 104V101.12C163.668 100.928 166.164 100.544 167.7 99.968C169.332 99.392 170.436 98.288 171.012 96.656C171.588 95.024 171.876 92.384 171.876 88.736V17.312C171.876 13.664 171.588 11.024 171.012 9.392C170.436 7.76 169.332 6.656 167.7 6.08C166.164 5.50399 163.668 5.11999 160.212 4.928V2.048C164.244 2.336 170.1 2.47999 177.78 2.47999L193.332 2.336C195.156 2.24 197.22 2.192 199.524 2.192C210.66 2.192 219.204 4.544 225.156 9.24799C231.204 13.856 234.228 19.856 234.228 27.248C234.228 30.992 233.316 34.784 231.492 38.624C229.764 42.368 226.788 45.776 222.564 48.848C218.436 51.824 213.012 53.84 206.292 54.896L208.02 55.184C214.356 56.24 218.964 58.16 221.844 60.944C224.724 63.728 226.836 68.144 228.18 74.192L231.78 88.88C232.74 93.296 233.748 96.368 234.804 98.096C235.86 99.824 237.3 100.688 239.124 100.688C240.756 100.688 242.1 100.256 243.156 99.392C244.308 98.528 245.604 97.136 247.044 95.216L249.204 96.8ZM195.924 4.928C192.948 4.928 190.692 5.264 189.156 5.93599C187.716 6.608 186.708 7.808 186.132 9.536C185.556 11.264 185.268 13.856 185.268 17.312V52.736H194.916C204.42 52.736 210.948 50.624 214.5 46.4C218.052 42.176 219.828 36.32 219.828 28.832C219.828 20.96 217.956 15.008 214.212 10.976C210.468 6.944 204.372 4.928 195.924 4.928ZM300.963 0.031991C310.083 0.031991 318.051 2.09599 324.867 6.224C331.779 10.352 337.107 16.352 340.851 24.224C344.691 32 346.611 41.312 346.611 52.16C346.611 62.72 344.643 72.08 340.707 80.24C336.867 88.4 331.443 94.736 324.435 99.248C317.523 103.76 309.651 106.016 300.819 106.016C291.699 106.016 283.683 103.952 276.771 99.824C269.955 95.696 264.627 89.744 260.787 81.968C257.043 74.096 255.171 64.736 255.171 53.888C255.171 43.328 257.091 33.968 260.931 25.808C264.867 17.648 270.291 11.312 277.203 6.8C284.211 2.28799 292.131 0.031991 300.963 0.031991ZM300.387 2.62399C294.243 2.62399 288.819 4.78399 284.115 9.10399C279.507 13.328 275.907 19.28 273.315 26.96C270.819 34.64 269.571 43.424 269.571 53.312C269.571 63.296 270.963 72.08 273.747 79.664C276.627 87.248 280.467 93.104 285.267 97.232C290.067 101.36 295.443 103.424 301.395 103.424C307.539 103.424 312.915 101.312 317.523 97.088C322.227 92.768 325.827 86.768 328.323 79.088C330.915 71.408 332.211 62.624 332.211 52.736C332.211 42.752 330.771 33.968 327.891 26.384C325.107 18.8 321.315 12.944 316.515 8.816C311.715 4.68799 306.339 2.62399 300.387 2.62399ZM449.628 4.928C446.268 5.11999 443.772 5.64799 442.14 6.51199C440.508 7.27999 439.404 8.62399 438.828 10.544C438.252 12.368 437.964 15.104 437.964 18.752V104.72H434.652L374.172 11.264V87.296C374.172 91.04 374.46 93.824 375.036 95.648C375.708 97.472 376.956 98.816 378.78 99.68C380.604 100.448 383.436 100.928 387.276 101.12V104C383.82 103.712 378.924 103.568 372.588 103.568C366.828 103.568 362.364 103.712 359.196 104V101.12C362.556 100.928 365.052 100.448 366.684 99.68C368.316 98.816 369.42 97.472 369.996 95.648C370.572 93.728 370.86 90.944 370.86 87.296V17.312C370.86 13.664 370.572 11.024 369.996 9.392C369.42 7.76 368.316 6.656 366.684 6.08C365.148 5.50399 362.652 5.11999 359.196 4.928V2.048C362.364 2.336 366.828 2.47999 372.588 2.47999C376.908 2.47999 380.652 2.336 383.82 2.048L434.652 80.384V18.752C434.652 15.008 434.316 12.224 433.644 10.4C433.068 8.576 431.868 7.27999 430.044 6.51199C428.22 5.64799 425.388 5.11999 421.548 4.928V2.048C425.004 2.336 429.9 2.47999 436.236 2.47999C441.996 2.47999 446.46 2.336 449.628 2.048V4.928ZM535.625 91.904C537.929 97.856 541.241 100.928 545.561 101.12V104C541.721 103.712 536.585 103.568 530.153 103.568C521.897 103.568 515.753 103.712 511.721 104V101.12C515.369 100.928 517.961 100.496 519.497 99.824C521.129 99.056 521.945 97.712 521.945 95.792C521.945 94.16 521.369 91.904 520.217 89.024L511.433 65.408H476.585L470.681 80.672C468.761 85.856 467.801 89.792 467.801 92.48C467.801 95.456 468.809 97.616 470.825 98.96C472.937 100.304 476.105 101.024 480.329 101.12V104C474.857 103.712 469.337 103.568 463.769 103.568C459.449 103.568 455.849 103.712 452.969 104V101.12C457.769 99.968 461.561 95.792 464.345 88.592L498.185 1.32799H500.489L535.625 91.904ZM510.281 62.528L494.153 19.472L477.737 62.528H510.281ZM229.362 116.62C230.442 116.62 231.342 116.584 232.062 116.512V117.232C230.718 117.544 229.77 118.588 229.218 120.364L222.414 142.18H222.126H221.838L215.574 123.64L209.85 142.18H209.562H209.274L201.642 119.536C201.138 118.048 200.31 117.28 199.158 117.232V116.512C200.142 116.584 201.426 116.62 203.01 116.62C204.738 116.62 206.034 116.584 206.898 116.512V117.232C206.25 117.28 205.794 117.4 205.53 117.592C205.266 117.784 205.134 118.084 205.134 118.492C205.134 118.876 205.266 119.464 205.53 120.256L210.786 136.312L215.178 122.38L214.206 119.536C213.726 118.048 213.018 117.28 212.082 117.232V116.512C212.946 116.584 214.11 116.62 215.574 116.62C217.638 116.62 219.174 116.584 220.182 116.512V117.232C219.27 117.28 218.634 117.388 218.274 117.556C217.914 117.7 217.734 118.024 217.734 118.528C217.734 118.96 217.854 119.536 218.094 120.256L223.278 136.276L227.706 122.344C228.09 121.168 228.282 120.196 228.282 119.428C228.282 118.636 228.042 118.084 227.562 117.772C227.082 117.436 226.302 117.256 225.222 117.232V116.512C226.59 116.584 227.97 116.62 229.362 116.62ZM244.829 116.008C247.109 116.008 249.101 116.524 250.805 117.556C252.533 118.588 253.865 120.088 254.801 122.056C255.761 124 256.241 126.328 256.241 129.04C256.241 131.68 255.749 134.02 254.765 136.06C253.805 138.1 252.449 139.684 250.697 140.812C248.969 141.94 247.001 142.504 244.793 142.504C242.513 142.504 240.509 141.988 238.781 140.956C237.077 139.924 235.745 138.436 234.785 136.492C233.849 134.524 233.381 132.184 233.381 129.472C233.381 126.832 233.861 124.492 234.821 122.452C235.805 120.412 237.161 118.828 238.889 117.7C240.641 116.572 242.621 116.008 244.829 116.008ZM244.685 116.656C243.149 116.656 241.793 117.196 240.617 118.276C239.465 119.332 238.565 120.82 237.917 122.74C237.293 124.66 236.981 126.856 236.981 129.328C236.981 131.824 237.329 134.02 238.025 135.916C238.745 137.812 239.705 139.276 240.905 140.308C242.105 141.34 243.449 141.856 244.937 141.856C246.473 141.856 247.817 141.328 248.969 140.272C250.145 139.192 251.045 137.692 251.669 135.772C252.317 133.852 252.641 131.656 252.641 129.184C252.641 126.688 252.281 124.492 251.561 122.596C250.865 120.7 249.917 119.236 248.717 118.204C247.517 117.172 246.173 116.656 244.685 116.656ZM287.719 117.232C286.855 117.28 286.219 117.376 285.811 117.52C285.427 117.664 285.163 117.94 285.019 118.348C284.875 118.756 284.803 119.416 284.803 120.328V138.184C284.803 139.096 284.875 139.756 285.019 140.164C285.163 140.572 285.427 140.848 285.811 140.992C286.219 141.136 286.855 141.232 287.719 141.28V142C286.615 141.928 285.091 141.892 283.147 141.892C281.083 141.892 279.547 141.928 278.539 142V141.28C279.403 141.232 280.027 141.136 280.411 140.992C280.819 140.848 281.095 140.572 281.239 140.164C281.383 139.756 281.455 139.096 281.455 138.184V118.888L272.779 142.18H272.203L263.131 118.816V137.824C263.131 138.76 263.203 139.456 263.347 139.912C263.515 140.368 263.827 140.704 264.283 140.92C264.739 141.112 265.447 141.232 266.407 141.28V142C265.543 141.928 264.319 141.892 262.735 141.892C261.295 141.892 260.179 141.928 259.387 142V141.28C260.227 141.232 260.851 141.112 261.259 140.92C261.667 140.704 261.943 140.368 262.087 139.912C262.231 139.432 262.303 138.736 262.303 137.824V120.328C262.303 119.416 262.231 118.756 262.087 118.348C261.943 117.94 261.667 117.664 261.259 117.52C260.875 117.376 260.251 117.28 259.387 117.232V116.512C260.179 116.584 261.295 116.62 262.735 116.62C263.983 116.62 265.003 116.584 265.795 116.512L273.715 137.356L281.455 116.62H283.147C285.091 116.62 286.615 116.584 287.719 116.512V117.232ZM309.178 137.392C309.178 138.76 309.262 140.296 309.43 142C307.798 141.928 305.05 141.892 301.186 141.892C296.578 141.892 293.098 141.928 290.746 142V141.28C291.61 141.232 292.234 141.136 292.618 140.992C293.026 140.848 293.302 140.572 293.446 140.164C293.59 139.756 293.662 139.096 293.662 138.184V120.328C293.662 119.416 293.59 118.756 293.446 118.348C293.302 117.94 293.026 117.664 292.618 117.52C292.234 117.376 291.61 117.28 290.746 117.232V116.512C293.098 116.584 296.578 116.62 301.186 116.62C304.714 116.62 307.222 116.584 308.71 116.512C308.542 118.096 308.458 119.512 308.458 120.76C308.458 121.696 308.494 122.44 308.566 122.992H307.738C307.57 121.432 307.354 120.28 307.09 119.536C306.826 118.768 306.382 118.216 305.758 117.88C305.134 117.52 304.186 117.34 302.914 117.34H299.926C299.062 117.34 298.426 117.412 298.018 117.556C297.634 117.676 297.37 117.94 297.226 118.348C297.082 118.756 297.01 119.416 297.01 120.328V128.824H299.386C300.226 128.824 300.874 128.632 301.33 128.248C301.786 127.84 302.086 127.372 302.23 126.844C302.398 126.292 302.53 125.608 302.626 124.792L302.734 124.072H303.562C303.49 125.08 303.454 126.208 303.454 127.456V129.184C303.454 130.408 303.526 132.112 303.67 134.296H302.842C302.818 134.128 302.746 133.552 302.626 132.568C302.506 131.56 302.17 130.804 301.618 130.3C301.09 129.796 300.346 129.544 299.386 129.544H297.01V138.184C297.01 139.096 297.082 139.756 297.226 140.164C297.37 140.572 297.634 140.848 298.018 140.992C298.426 141.112 299.062 141.172 299.926 141.172H302.554C304.042 141.172 305.17 140.98 305.938 140.596C306.73 140.188 307.306 139.552 307.666 138.688C308.026 137.8 308.29 136.504 308.458 134.8H309.286C309.214 135.448 309.178 136.312 309.178 137.392ZM335.292 117.232C334.452 117.28 333.828 117.412 333.42 117.628C333.012 117.82 332.736 118.156 332.592 118.636C332.448 119.092 332.376 119.776 332.376 120.688V142.18H331.548L316.428 118.816V137.824C316.428 138.76 316.5 139.456 316.644 139.912C316.812 140.368 317.124 140.704 317.58 140.92C318.036 141.112 318.744 141.232 319.704 141.28V142C318.84 141.928 317.616 141.892 316.032 141.892C314.592 141.892 313.476 141.928 312.684 142V141.28C313.524 141.232 314.148 141.112 314.556 140.92C314.964 140.704 315.24 140.368 315.384 139.912C315.528 139.432 315.6 138.736 315.6 137.824V120.328C315.6 119.416 315.528 118.756 315.384 118.348C315.24 117.94 314.964 117.664 314.556 117.52C314.172 117.376 313.548 117.28 312.684 117.232V116.512C313.476 116.584 314.592 116.62 316.032 116.62C317.112 116.62 318.048 116.584 318.84 116.512L331.548 136.096V120.688C331.548 119.752 331.464 119.056 331.296 118.6C331.152 118.144 330.852 117.82 330.396 117.628C329.94 117.412 329.232 117.28 328.272 117.232V116.512C329.136 116.584 330.36 116.62 331.944 116.62C333.384 116.62 334.5 116.584 335.292 116.512V117.232Z" fill="url(#paint0_radial)"/>
<defs>
<radialGradient id="paint0_radial" cx="0" cy="0" r="1" gradientUnits="userSpaceOnUse" gradientTransform="translate(268 45.5) rotate(90) scale(97.5 277)">
<stop stop-color="#69185B"/>
<stop offset="1" stop-color="#922A81"/>
</radialGradient>
</defs>
</svg>
