<?xml version="1.0" encoding="UTF-8" standalone="no"?>
<!-- Created with Inkscape (http://www.inkscape.org/) -->

<svg
   xmlns:dc="http://purl.org/dc/elements/1.1/"
   xmlns:cc="http://creativecommons.org/ns#"
   xmlns:rdf="http://www.w3.org/1999/02/22-rdf-syntax-ns#"
   xmlns:svg="http://www.w3.org/2000/svg"
   xmlns="http://www.w3.org/2000/svg"
   xmlns:sodipodi="http://sodipodi.sourceforge.net/DTD/sodipodi-0.dtd"
   xmlns:inkscape="http://www.inkscape.org/namespaces/inkscape"
   width="256"
   height="256"
   viewBox="0 0 256 256"
   id="svg6899"
   version="1.1"
   inkscape:version="0.91 r13725"
   sodipodi:docname="syrona.svg">
  <defs
     id="defs6901" />
  <sodipodi:namedview
     id="base"
     pagecolor="#ffffff"
     bordercolor="#666666"
     borderopacity="1.0"
     inkscape:pageopacity="0.0"
     inkscape:pageshadow="2"
     inkscape:zoom="2.8"
     inkscape:cx="203.20002"
     inkscape:cy="117.55648"
     inkscape:document-units="px"
     inkscape:current-layer="layer1"
     showgrid="false"
     units="px"
     inkscape:snap-bbox="true"
     inkscape:window-width="1920"
     inkscape:window-height="1019"
     inkscape:window-x="0"
     inkscape:window-y="0"
     inkscape:window-maximized="1" />
  <metadata
     id="metadata6904">
    <rdf:RDF>
      <cc:Work
         rdf:about="">
        <dc:format>image/svg+xml</dc:format>
        <dc:type
           rdf:resource="http://purl.org/dc/dcmitype/StillImage" />
        <dc:title></dc:title>
      </cc:Work>
    </rdf:RDF>
  </metadata>
  <g
     inkscape:label="Layer 1"
     inkscape:groupmode="layer"
     id="layer1"
     transform="translate(0,-796.36219)">
    <path
       style="fill:#6c3960;fill-opacity:1"
       d="M 10.677734 14.482422 L 23.304688 149.8418 L 23.630859 149.83984 A 111.62186 111.62186 0 0 0 64.876953 223.94336 L 58.490234 181.22266 L 66.744141 181.22266 C 75.596101 201.83275 85.884556 217.00719 97.607422 226.74609 C 109.33029 236.48489 123.20515 241.35547 139.23438 241.35547 C 152.3927 241.35547 163.0396 237.84337 171.17383 230.82227 C 179.30806 223.57487 183.375 214.28907 183.375 202.96484 C 183.375 192.32007 179.42819 182.92103 171.5332 174.76758 C 163.6382 166.38765 154.0686 159.25383 142.82422 153.36523 C 131.57984 147.47663 120.33422 141.47641 109.08984 135.36133 C 98.084699 129.01977 88.635226 120.97906 80.740234 111.24023 C 72.845242 101.50139 68.898438 90.177198 68.898438 77.267578 C 68.898437 60.054758 74.997869 46.125239 87.199219 35.480469 C 93.952121 29.579422 101.35228 25.310741 109.375 22.615234 L 10.677734 14.482422 z M 137.08203 33.101562 C 126.07689 33.101562 117.10599 36.046947 110.16797 41.935547 C 103.22995 47.824137 99.759766 55.409453 99.759766 64.695312 C 99.759766 73.754682 103.82671 82.362185 111.96094 90.515625 C 120.09517 98.669065 133.61354 107.72805 152.51367 117.69336 C 176.19865 129.69704 193.30343 141.58804 203.83008 153.36523 C 214.35674 164.91594 219.62109 177.71187 219.62109 191.75391 C 219.62109 199.53518 218.2009 206.76974 215.39062 213.46875 A 111.62186 111.62186 0 0 0 245.97266 136.80078 A 111.62186 111.62186 0 0 0 207.48242 52.660156 L 211.72461 91.535156 L 202.75391 91.535156 C 197.0121 71.604526 188.15938 56.883444 176.19727 47.371094 C 164.4744 37.858754 151.43656 33.101562 137.08203 33.101562 z M 214.69922 214.25781 A 111.62186 112.50549 0 0 1 214.24609 214.73438 A 111.62186 111.62186 0 0 0 214.69922 214.25781 z "
       transform="translate(0,796.36219)"
       id="path7718" />
  </g>
  <g
     inkscape:groupmode="layer"
     id="layer2"
     inkscape:label="Layer 2" />
</svg>
